# File created by Blade
# Date/Time:  Tue Apr 07 20:22:14 2015
# Frame Rate: 120.000 fps
#------------------------------------------------------
:FULLY-SPECIFIED
:DEGREES
1086
root 0.963641 32.876531 -10.320925 12.206107 2.715648 -1.019213
Spine -13.238841 -5.323869 0.632065
Head 18.146960 -0.114751 -0.060469
LeftShoulder -21.379573 37.086276 23.683279
LeftArm 51.644562 -59.621819 -54.027608
LeftForeArm 12.595294 -0.000000 2.345571
LeftHand 4.964535 0.000000 7.328167
LeftHandThumb1 -26.253704 0.000000 33.147579
RightShoulder -10.461302 7.793992 -35.080806
RightArm 8.799985 15.590266 33.709256
RightForeArm -17.210474 0.000000 2.453633
RightHand 0.927563 -0.000000 1.709671
RightHandThumb1 -24.326973 -0.000000 -32.862282
LeftUpLeg -9.281724 -9.248427 2.428101
LeftLeg -1.768612 -0.000000 0.000000
LeftFoot -6.734865 11.404254 -15.293074
LeftToeBase -8.280673 -0.000000 0.000000
RightUpLeg -9.014424 -1.097943 1.812791
RightLeg -1.909255 -0.000000 0.000000
RightFoot -7.132080 -8.796124 6.654487
RightToeBase 5.400659 -0.000000 -0.000000
1087
root 0.957952 32.872564 -10.336119 12.231153 2.574379 -1.001996
Spine -13.205716 -5.295080 0.602458
Head 17.993767 -0.003084 -0.123793
LeftShoulder -21.448283 37.141116 23.576696
LeftArm 51.643110 -59.687210 -54.122844
LeftForeArm 12.528624 -0.000000 2.194976
LeftHand 4.911941 0.000000 7.197795
LeftHandThumb1 -26.253704 0.000000 33.147579
RightShoulder -10.421833 7.767508 -35.020795
RightArm 8.843486 15.566053 33.688392
RightForeArm -17.042036 -0.000000 2.409709
RightHand 1.003802 -0.000000 1.839786
RightHandThumb1 -24.326973 -0.000000 -32.862282
LeftUpLeg -9.288761 -9.225093 2.419800
LeftLeg -1.832404 -0.000000 0.000000
LeftFoot -6.737640 11.492590 -15.309928
LeftToeBase -8.294216 -0.000000 0.000000
RightUpLeg -9.029607 -1.105368 1.801295
RightLeg -1.999698 -0.000000 0.000000
RightFoot -7.093345 -8.667320 6.645352
RightToeBase 5.435054 -0.000000 -0.000000
1088
root 0.951828 32.869193 -10.350180 12.259943 2.443782 -0.975957
Spine -13.179004 -5.265739 0.565694
Head 17.851350 0.077670 -0.196647
LeftShoulder -21.485697 37.199307 23.468063
LeftArm 51.605066 -59.807490 -54.204686
LeftForeArm 12.488402 -0.000000 2.111658
LeftHand 4.806739 -0.000000 6.850142
LeftHandThumb1 -26.253704 0.000000 33.147579
RightShoulder -10.389361 7.742274 -34.960833
RightArm 8.824711 15.669710 33.652697
RightForeArm -16.956732 0.000000 2.441979
RightHand 0.902661 -0.000000 1.825289
RightHandThumb1 -24.326973 -0.000000 -32.862282
LeftUpLeg -9.300501 -9.172749 2.400388
LeftLeg -1.887221 -0.000000 0.000000
LeftFoot -6.784355 11.520268 -15.462997
LeftToeBase -7.753098 -0.000000 0.000000
RightUpLeg -9.041903 -1.076995 1.775184
RightLeg -2.098032 -0.000000 0.000000
RightFoot -7.036539 -8.576627 6.616129
RightToeBase 5.425828 -0.000000 -0.000000
1089
root 0.946824 32.865991 -10.360832 12.308065 2.323917 -0.944336
Spine -13.183097 -5.239285 0.523278
Head 17.711520 0.146321 -0.258357
LeftShoulder -21.542607 37.275846 23.340551
LeftArm 51.696026 -59.982413 -54.396809
LeftForeArm 12.505476 0.000000 1.991704
LeftHand 4.800816 -0.000000 6.815637
LeftHandThumb1 -26.253704 0.000000 33.147579
RightShoulder -10.380838 7.723470 -34.924899
RightArm 8.786996 15.740660 33.627904
RightForeArm -16.906318 -0.000000 2.469220
RightHand 0.981061 0.000000 1.745737
RightHandThumb1 -24.326973 -0.000000 -32.862282
LeftUpLeg -9.319778 -9.135319 2.376610
LeftLeg -1.957478 -0.000000 0.000000
LeftFoot -6.745626 11.575016 -15.426630
LeftToeBase -7.968722 -0.000000 0.000000
RightUpLeg -9.058265 -1.053520 1.740489
RightLeg -2.215529 -0.000000 0.000000
RightFoot -6.964662 -8.485286 6.596374
RightToeBase 5.367870 -0.000000 -0.000000
1090
root 0.939088 32.863561 -10.370777 12.376512 2.204056 -0.925180
Spine -13.211974 -5.211817 0.491466
Head 17.581827 0.211255 -0.320826
LeftShoulder -21.603282 37.303259 23.235902
LeftArm 51.555436 -60.051905 -54.335904
LeftForeArm 12.399315 0.000000 1.887780
LeftHand 4.716414 -0.000000 6.790080
LeftHandThumb1 -26.253704 0.000000 33.147579
RightShoulder -10.391450 7.708206 -34.916496
RightArm 8.720929 15.842449 33.628785
RightForeArm -16.945511 0.000000 2.532169
RightHand 1.027997 -0.000000 1.675979
RightHandThumb1 -24.326973 -0.000000 -32.862282
LeftUpLeg -9.356842 -9.102938 2.376408
LeftLeg -2.034222 -0.000000 0.000000
LeftFoot -6.697735 11.653725 -15.385585
LeftToeBase -8.268920 -0.000000 0.000000
RightUpLeg -9.103474 -1.035602 1.725916
RightLeg -2.313422 -0.000000 0.000000
RightFoot -6.909652 -8.394712 6.580918
RightToeBase 5.377642 -0.000000 -0.000000
1091
root 0.928447 32.861092 -10.379539 12.463727 2.097494 -0.925955
Spine -13.266399 -5.201333 0.485674
Head 17.454068 0.276099 -0.389809
LeftShoulder -21.726273 37.404464 23.093689
LeftArm 51.679472 -60.222236 -54.533326
LeftForeArm 12.462629 -0.000000 1.765189
LeftHand 4.819004 -0.000000 6.496688
LeftHandThumb1 -26.253704 0.000000 33.147579
RightShoulder -10.408637 7.713005 -34.925245
RightArm 8.632949 15.866994 33.615020
RightForeArm -16.977177 -0.000000 2.602031
RightHand 1.035885 0.000000 1.600344
RightHandThumb1 -24.326973 -0.000000 -32.862282
LeftUpLeg -9.412689 -9.068831 2.387135
LeftLeg -2.111012 -0.000000 0.000000
LeftFoot -6.666735 11.790937 -15.311796
LeftToeBase -7.966606 -0.000000 0.000000
RightUpLeg -9.166261 -1.030555 1.742633
RightLeg -2.412853 -0.000000 0.000000
RightFoot -6.842118 -8.316396 6.552847
RightToeBase 5.325362 -0.000000 -0.000000
1092
root 0.921275 32.860111 -10.386646 12.551150 1.990623 -0.911331
Spine -13.326315 -5.183055 0.465830
Head 17.348399 0.324232 -0.446804
LeftShoulder -21.825256 37.447543 23.001456
LeftArm 51.745605 -60.371521 -54.742169
LeftForeArm 12.512445 -0.000000 1.744995
LeftHand 4.649801 0.000000 6.385145
LeftHandThumb1 -26.253704 0.000000 33.147579
RightShoulder -10.441110 7.691911 -34.919793
RightArm 8.569225 15.801481 33.545551
RightForeArm -16.944843 -0.000000 2.631179
RightHand 1.091442 -0.000000 1.598007
RightHandThumb1 -24.326973 -0.000000 -32.862282
LeftUpLeg -9.460864 -9.065298 2.392783
LeftLeg -2.196826 -0.000000 0.000000
LeftFoot -6.627474 11.903437 -15.307930
LeftToeBase -8.011855 -0.000000 0.000000
RightUpLeg -9.220342 -0.996914 1.731553
RightLeg -2.523537 -0.000000 0.000000
RightFoot -6.777197 -8.267188 6.580181
RightToeBase 5.371974 -0.000000 -0.000000
1093
root 0.917763 32.859920 -10.390718 12.638549 1.878615 -0.865340
Spine -13.400127 -5.144965 0.416218
Head 17.279995 0.338648 -0.511333
LeftShoulder -21.926975 37.550478 22.859811
LeftArm 51.895181 -60.552455 -54.957402
LeftForeArm 12.523386 -0.000000 1.694208
LeftHand 4.554764 -0.000000 6.376651
LeftHandThumb1 -26.253704 0.000000 33.147579
RightShoulder -10.475522 7.625084 -34.919859
RightArm 8.504625 15.825421 33.465837
RightForeArm -17.058852 0.000000 2.639966
RightHand 1.064708 0.000000 1.628424
RightHandThumb1 -24.326973 -0.000000 -32.862282
LeftUpLeg -9.510722 -9.035573 2.372246
LeftLeg -2.265431 -0.000000 0.000000
LeftFoot -6.595096 11.890121 -15.412429
LeftToeBase -8.111971 -0.000000 0.000000
RightUpLeg -9.275234 -0.984540 1.685263
RightLeg -2.617515 -0.000000 0.000000
RightFoot -6.704711 -8.185704 6.555705
RightToeBase 5.333702 -0.000000 -0.000000
1094
root 0.911478 32.860404 -10.394268 12.731780 1.765246 -0.840778
Spine -13.484633 -5.101885 0.385737
Head 17.223309 0.339164 -0.583872
LeftShoulder -21.990595 37.581831 22.773722
LeftArm 51.809891 -60.702451 -54.973982
LeftForeArm 12.481369 -0.000000 1.657169
LeftHand 4.561273 -0.000000 6.159357
LeftHandThumb1 -26.253704 0.000000 33.147579
RightShoulder -10.491009 7.553178 -34.891826
RightArm 8.412152 15.762443 33.306507
RightForeArm -17.036879 -0.000000 2.636480
RightHand 0.982364 0.000000 1.725938
RightHandThumb1 -24.326973 -0.000000 -32.862282
LeftUpLeg -9.562503 -9.024567 2.368293
LeftLeg -2.342292 -0.000000 0.000000
LeftFoot -6.549011 11.969341 -15.435118
LeftToeBase -8.111635 -0.000000 0.000000
RightUpLeg -9.342848 -0.961982 1.666894
RightLeg -2.697456 -0.000000 0.000000
RightFoot -6.649834 -8.115493 6.553823
RightToeBase 5.372262 -0.000000 -0.000000
1095
root 0.905600 32.861637 -10.396024 12.834276 1.653987 -0.818518
Spine -13.589828 -5.068980 0.362450
Head 17.185190 0.358086 -0.646389
LeftShoulder -22.075057 37.594323 22.682594
LeftArm 51.776177 -60.844657 -55.011370
LeftForeArm 12.418278 -0.000000 1.618153
LeftHand 4.455405 0.000000 6.120181
LeftHandThumb1 -26.253704 0.000000 33.147579
RightShoulder -10.494434 7.499637 -34.885628
RightArm 8.308709 15.739173 33.155119
RightForeArm -17.056872 0.000000 2.580966
RightHand 1.071603 -0.000000 1.725140
RightHandThumb1 -24.326973 -0.000000 -32.862282
LeftUpLeg -9.615304 -9.016504 2.361549
LeftLeg -2.434355 -0.000000 0.000000
LeftFoot -6.490499 12.108566 -15.407553
LeftToeBase -8.120932 -0.000000 0.000000
RightUpLeg -9.422006 -0.962480 1.656079
RightLeg -2.771591 -0.000000 0.000000
RightFoot -6.560710 -8.044682 6.511935
RightToeBase 5.327337 -0.000000 -0.000000
